<svg width="399" height="313" viewBox="0 0 399 313" fill="none" xmlns="http://www.w3.org/2000/svg">
<g clip-path="url(#clip0_1_191)">
<path d="M0.449951 119.73V30.9501H14.04V119.73H0.449951Z" fill="#A57D49"/>
<path d="M41.2099 119.73V30.95H54.7999V48.89L52.4399 46.72C55.4599 40.92 59.3799 36.55 64.2199 33.58C69.0499 30.62 74.3699 29.14 80.1599 29.14C87.1599 29.14 93.5099 31.22 99.1899 35.39C104.87 39.56 108.73 44.9 110.79 51.43H107.17C110.07 44.3 114.33 38.81 119.94 34.94C125.56 31.08 131.93 29.14 139.06 29.14C145.58 29.14 151.38 30.8 156.45 34.12C161.52 37.44 165.48 41.97 168.32 47.71C171.16 53.45 172.58 59.94 172.58 67.19V119.73H158.99V67.19C158.99 62.36 158.11 58.01 156.36 54.14C154.61 50.28 152.1 47.25 148.84 45.08C145.58 42.91 141.71 41.82 137.24 41.82C133.01 41.82 129.12 42.94 125.55 45.17C121.99 47.41 119.12 50.46 116.94 54.32C114.77 58.19 113.68 62.47 113.68 67.18V119.72H100.09V67.18C100.09 62.35 99.2099 58 97.4599 54.13C95.7099 50.27 93.1999 47.24 89.9399 45.07C86.6799 42.9 82.8099 41.81 78.3399 41.81C74.1099 41.81 70.2199 42.93 66.6499 45.16C63.0899 47.4 60.2199 50.45 58.0399 54.31C55.8699 58.18 54.7799 62.46 54.7799 67.17V119.71H41.1899L41.2099 119.73Z" fill="#A57D49"/>
<path d="M99.8398 251.97V126.95H113.43V146.7L111.26 143.62C114.76 138.07 119.59 133.6 125.75 130.21C131.91 126.83 138.67 125.14 146.04 125.14C154.13 125.14 161.68 127.16 168.69 131.21C175.69 135.26 181.25 140.81 185.36 147.88C189.47 154.95 191.52 162.77 191.52 171.34C191.52 179.91 189.46 187.74 185.36 194.8C181.25 201.87 175.7 207.42 168.69 211.47C161.68 215.52 154.13 217.54 146.04 217.54C138.67 217.54 131.91 215.85 125.75 212.47C119.59 209.09 114.76 204.62 111.26 199.06L113.43 195.98V251.97H99.8398ZM145.13 204.86C151.05 204.86 156.45 203.38 161.35 200.42C166.24 197.46 170.14 193.45 173.04 188.37C175.94 183.3 177.39 177.62 177.39 171.34C177.39 165.06 175.94 159.38 173.04 154.31C170.14 149.24 166.25 145.22 161.35 142.26C156.46 139.3 151.05 137.82 145.13 137.82C139.21 137.82 133.74 139.3 128.73 142.26C123.72 145.22 119.76 149.24 116.86 154.31C113.96 159.38 112.51 165.06 112.51 171.34C112.51 177.62 113.96 183.3 116.86 188.37C119.76 193.44 123.71 197.46 128.73 200.42C133.74 203.38 139.21 204.86 145.13 204.86Z" fill="#A57D49"/>
<path d="M212.35 215.73V126.95H225.94V145.79L223.4 143.25C227.02 137.57 231.46 133.29 236.72 130.39C241.97 127.49 247.74 126.04 254.02 126.04H261.27V138.72H252.21C247.38 138.72 242.97 139.84 238.98 142.07C234.99 144.31 231.82 147.42 229.47 151.4C227.12 155.39 225.94 159.92 225.94 164.99V215.72H212.35V215.73Z" fill="#A57D49"/>
<path d="M252.2 310.73L212.34 221.95H227.02L259.45 295.51H254.38L286.81 221.95H301.12L261.26 310.73H252.2Z" fill="#A57D49"/>
<path d="M354.75 312.55C346.42 312.55 338.83 310.53 332.01 306.48C325.18 302.44 319.84 296.91 315.98 289.9C312.11 282.9 310.18 275.04 310.18 266.35C310.18 257.66 312.11 249.8 315.98 242.8C319.84 235.8 325.19 230.27 332.01 226.22C338.83 222.17 346.41 220.15 354.75 220.15C363.09 220.15 371.36 222.32 378.48 226.67C385.6 231.02 390.98 237.06 394.6 244.79C398.22 252.52 399.43 261.22 398.22 270.88H319.59V258.56H390.43L384.45 262C384.45 256.32 383.12 251.25 380.46 246.78C377.8 242.31 374.21 238.87 369.68 236.45C365.15 234.04 360.17 232.83 354.73 232.83C348.57 232.83 343.19 234.22 338.6 237C334.01 239.78 330.48 243.7 328 248.78C325.52 253.85 324.29 259.71 324.29 266.35C324.29 272.99 325.53 278.85 328 283.93C330.47 289 334.01 292.93 338.6 295.71C343.19 298.49 348.56 299.88 354.73 299.88C358.96 299.88 362.76 299.31 366.14 298.16C369.52 297.01 372.54 295.29 375.2 293C377.86 290.71 380.09 287.87 381.9 284.48H396.4C392.78 293.54 387.4 300.49 380.28 305.32C373.15 310.15 364.64 312.57 354.73 312.57L354.75 312.55Z" fill="#A57D49"/>
<path d="M362.39 170L362.26 168.53L318.6 172.58L357.85 153.04L357.19 151.72L317.95 171.26L347.48 138.86L346.39 137.87L316.86 170.27L332.7 129.39L331.32 128.85L315.48 169.74V125.89H314.01V169.74L298.17 128.85L296.8 129.39L312.64 170.27L283.1 137.87L282.01 138.86L311.55 171.26L272.3 151.72L271.65 153.04L310.89 172.58L267.24 168.53L267.1 170L310.76 174.04L268.59 186.04L268.99 187.46L311.16 175.46L276.17 201.88L277.06 203.06L312.05 176.64L288.97 213.91L290.22 214.69L313.3 177.41L305.24 220.51L306.69 220.78L314.75 177.68L322.8 220.78L324.25 220.51L316.2 177.41L339.28 214.69L340.53 213.91L317.45 176.64L352.44 203.06L353.32 201.88L318.33 175.46L360.5 187.46L360.91 186.04L318.74 174.04L362.39 170Z" fill="#A57D49"/>
<path d="M321.16 220.34L314.75 186.05L308.34 220.34C308.11 221.57 306.92 222.39 305.69 222.16C304.46 221.93 303.64 220.74 303.87 219.51L310.28 185.22L291.92 214.88C291.26 215.95 289.86 216.28 288.79 215.62C287.72 214.96 287.39 213.56 288.05 212.49L306.41 182.83L278.57 203.85C277.57 204.61 276.14 204.41 275.39 203.41C274.63 202.41 274.83 200.98 275.83 200.23L303.67 179.21L270.12 188.76C268.91 189.1 267.65 188.4 267.31 187.2C266.97 185.99 267.67 184.73 268.87 184.39L302.42 174.84L267.69 171.62C266.44 171.5 265.52 170.4 265.64 169.15C265.76 167.9 266.86 166.98 268.11 167.1L302.85 170.32L271.62 154.77C270.5 154.21 270.04 152.85 270.6 151.72C271.16 150.6 272.52 150.14 273.65 150.7L304.88 166.25L281.38 140.47C280.53 139.54 280.6 138.1 281.53 137.26C282.46 136.41 283.9 136.48 284.74 137.41L308.24 163.19L295.64 130.66C295.19 129.49 295.77 128.17 296.94 127.72C298.11 127.27 299.43 127.85 299.88 129.02L312.48 161.55V126.67C312.48 125.41 313.5 124.4 314.75 124.4C316.01 124.4 317.02 125.42 317.02 126.67V161.55L329.62 129.02C330.07 127.85 331.39 127.27 332.56 127.72C333.73 128.17 334.31 129.49 333.86 130.66L321.26 163.19L344.76 137.41C345.61 136.48 347.04 136.42 347.97 137.26C348.9 138.11 348.96 139.54 348.12 140.47L324.62 166.25L355.85 150.7C356.97 150.14 358.34 150.6 358.9 151.72C359.46 152.84 359 154.21 357.88 154.77L326.65 170.32L361.38 167.1C362.63 166.98 363.74 167.9 363.85 169.15C363.97 170.4 363.05 171.51 361.8 171.62L327.06 174.84L360.61 184.39C361.82 184.73 362.52 185.99 362.17 187.2C361.83 188.41 360.57 189.11 359.36 188.76L325.81 179.21L353.65 200.23C354.65 200.99 354.85 202.41 354.09 203.41C353.33 204.41 351.91 204.61 350.91 203.85L323.07 182.83L341.43 212.49C342.09 213.56 341.76 214.96 340.69 215.62C339.62 216.28 338.22 215.95 337.56 214.88L319.2 185.22L325.61 219.51C325.84 220.74 325.03 221.93 323.79 222.16C322.56 222.39 321.37 221.58 321.14 220.34H321.16Z" fill="#A57D49"/>
<path d="M7.5 15C11.6421 15 15 11.6421 15 7.5C15 3.35786 11.6421 0 7.5 0C3.35786 0 0 3.35786 0 7.5C0 11.6421 3.35786 15 7.5 15Z" fill="#A57D49"/>
</g>
<defs>
<clipPath id="clip0_1_191">
<rect width="398.69" height="312.55" fill="white"/>
</clipPath>
</defs>
</svg>
