<svg width="656" height="156" viewBox="0 0 656 156" fill="none" xmlns="http://www.w3.org/2000/svg">
<g clip-path="url(#clip0_1_118)">
<path d="M0.449951 119.73V30.95H14.04V119.73H0.449951Z" fill="#A57D49"/>
<path d="M41.2099 119.73V30.95H54.7999V48.89L52.4399 46.72C55.4599 40.92 59.3799 36.55 64.2199 33.58C69.0499 30.62 74.3699 29.14 80.1599 29.14C87.1599 29.14 93.5099 31.22 99.1899 35.39C104.87 39.56 108.73 44.9 110.79 51.43H107.17C110.07 44.3 114.33 38.81 119.94 34.94C125.56 31.08 131.93 29.14 139.06 29.14C145.58 29.14 151.38 30.8 156.45 34.12C161.52 37.44 165.48 41.97 168.32 47.71C171.16 53.45 172.58 59.94 172.58 67.19V119.73H158.99V67.19C158.99 62.36 158.11 58.01 156.36 54.14C154.61 50.28 152.1 47.25 148.84 45.08C145.58 42.91 141.71 41.82 137.24 41.82C133.01 41.82 129.12 42.94 125.55 45.17C121.99 47.41 119.12 50.46 116.94 54.32C114.77 58.19 113.68 62.47 113.68 67.18V119.72H100.09V67.18C100.09 62.35 99.2099 58 97.4599 54.13C95.7099 50.27 93.1999 47.24 89.9399 45.07C86.6799 42.9 82.8099 41.81 78.3399 41.81C74.1099 41.81 70.2199 42.93 66.6499 45.16C63.0899 47.4 60.2199 50.45 58.0399 54.31C55.8699 58.18 54.7799 62.46 54.7799 67.17V119.71H41.1899L41.2099 119.73Z" fill="#A57D49"/>
<path d="M198.84 155.97V30.95H212.43V50.7L210.26 47.62C213.76 42.07 218.59 37.6 224.75 34.21C230.91 30.83 237.67 29.14 245.04 29.14C253.13 29.14 260.68 31.16 267.69 35.21C274.69 39.26 280.25 44.81 284.36 51.88C288.47 58.95 290.52 66.77 290.52 75.34C290.52 83.91 288.46 91.74 284.36 98.8C280.25 105.87 274.7 111.42 267.69 115.47C260.68 119.52 253.13 121.54 245.04 121.54C237.67 121.54 230.91 119.85 224.75 116.47C218.59 113.09 213.76 108.62 210.26 103.06L212.43 99.98V155.97H198.84ZM244.13 108.86C250.05 108.86 255.45 107.38 260.35 104.42C265.24 101.46 269.14 97.45 272.04 92.37C274.94 87.3 276.39 81.62 276.39 75.34C276.39 69.06 274.94 63.38 272.04 58.31C269.14 53.24 265.25 49.22 260.35 46.26C255.46 43.3 250.05 41.82 244.13 41.82C238.21 41.82 232.74 43.3 227.73 46.26C222.72 49.22 218.76 53.24 215.86 58.31C212.96 63.38 211.51 69.06 211.51 75.34C211.51 81.62 212.96 87.3 215.86 92.37C218.76 97.44 222.71 101.46 227.73 104.42C232.74 107.38 238.21 108.86 244.13 108.86Z" fill="#A57D49"/>
<path d="M311.35 119.73V30.95H324.94V49.79L322.4 47.25C326.02 41.57 330.46 37.29 335.72 34.39C340.97 31.49 346.74 30.04 353.02 30.04H360.27V42.72H351.21C346.38 42.72 341.97 43.84 337.98 46.07C333.99 48.31 330.82 51.42 328.47 55.4C326.12 59.39 324.94 63.92 324.94 68.99V119.72H311.35V119.73Z" fill="#A57D49"/>
<path d="M509.2 119.73L469.34 30.95H484.02L516.45 104.51H511.38L543.81 30.95H558.12L518.26 119.73H509.2Z" fill="#A57D49"/>
<path d="M611.75 121.55C603.42 121.55 595.83 119.53 589.01 115.48C582.18 111.44 576.84 105.91 572.98 98.9C569.11 91.9 567.18 84.04 567.18 75.35C567.18 66.66 569.11 58.8 572.98 51.8C576.84 44.8 582.19 39.27 589.01 35.22C595.83 31.17 603.41 29.15 611.75 29.15C620.09 29.15 628.36 31.32 635.48 35.67C642.6 40.02 647.98 46.06 651.6 53.79C655.22 61.52 656.43 70.22 655.22 79.88H576.59V67.56H647.43L641.45 71C641.45 65.32 640.12 60.25 637.46 55.78C634.8 51.31 631.21 47.87 626.68 45.45C622.15 43.04 617.17 41.83 611.73 41.83C605.57 41.83 600.19 43.22 595.6 46C591.01 48.78 587.48 52.7 585 57.78C582.52 62.85 581.29 68.71 581.29 75.35C581.29 81.99 582.53 87.85 585 92.93C587.47 98 591.01 101.93 595.6 104.71C600.19 107.49 605.56 108.88 611.73 108.88C615.96 108.88 619.76 108.31 623.14 107.16C626.52 106.01 629.54 104.29 632.2 102C634.86 99.71 637.09 96.87 638.9 93.48H653.4C649.78 102.54 644.4 109.49 637.28 114.32C630.15 119.15 621.64 121.57 611.73 121.57L611.75 121.55Z" fill="#A57D49"/>
<path d="M7.5 15C11.6421 15 15 11.6421 15 7.5C15 3.35786 11.6421 0 7.5 0C3.35786 0 0 3.35786 0 7.5C0 11.6421 3.35786 15 7.5 15Z" fill="#A57D49"/>
<path d="M461.39 74L461.26 72.53L417.6 76.58L456.85 57.04L456.19 55.72L416.95 75.26L446.48 42.86L445.39 41.87L415.86 74.27L431.7 33.39L430.32 32.85L414.48 73.74V29.89H413.01V73.74L397.17 32.85L395.8 33.39L411.64 74.27L382.1 41.87L381.01 42.86L410.55 75.26L371.3 55.72L370.65 57.04L409.89 76.58L366.24 72.53L366.1 74L409.76 78.04L367.59 90.04L367.99 91.46L410.16 79.46L375.17 105.88L376.06 107.06L411.05 80.64L387.97 117.91L389.22 118.69L412.3 81.41L404.24 124.51L405.69 124.78L413.75 81.68L421.8 124.78L423.25 124.51L415.2 81.41L438.28 118.69L439.53 117.91L416.45 80.64L451.44 107.06L452.32 105.88L417.33 79.46L459.5 91.46L459.91 90.04L417.74 78.04L461.39 74Z" fill="#A57D49"/>
<path d="M420.16 124.34L413.75 90.05L407.34 124.34C407.11 125.57 405.92 126.39 404.69 126.16C403.46 125.93 402.64 124.74 402.87 123.51L409.28 89.22L390.92 118.88C390.26 119.95 388.86 120.28 387.79 119.62C386.72 118.96 386.39 117.56 387.05 116.49L405.41 86.83L377.57 107.85C376.57 108.61 375.14 108.41 374.39 107.41C373.63 106.41 373.83 104.98 374.83 104.23L402.67 83.21L369.12 92.76C367.91 93.1 366.65 92.4 366.31 91.2C365.97 89.99 366.67 88.73 367.87 88.39L401.42 78.84L366.69 75.62C365.44 75.5 364.52 74.4 364.64 73.15C364.76 71.9 365.86 70.98 367.11 71.1L401.85 74.32L370.62 58.77C369.5 58.21 369.04 56.85 369.6 55.72C370.16 54.6 371.52 54.14 372.65 54.7L403.88 70.25L380.38 44.47C379.53 43.54 379.6 42.1 380.53 41.26C381.46 40.41 382.9 40.48 383.74 41.41L407.24 67.19L394.64 34.66C394.19 33.49 394.77 32.17 395.94 31.72C397.11 31.27 398.43 31.85 398.88 33.02L411.48 65.55V30.63C411.48 29.37 412.5 28.36 413.75 28.36C415.01 28.36 416.02 29.38 416.02 30.63V65.51L428.62 32.98C429.07 31.81 430.39 31.23 431.56 31.68C432.73 32.13 433.31 33.45 432.86 34.62L420.26 67.15L443.76 41.37C444.61 40.44 446.04 40.38 446.97 41.22C447.9 42.07 447.96 43.5 447.12 44.43L423.62 70.21L454.85 54.66C455.97 54.1 457.34 54.56 457.9 55.68C458.46 56.8 458 58.17 456.88 58.73L425.65 74.28L460.38 71.06C461.63 70.94 462.74 71.86 462.85 73.11C462.97 74.36 462.05 75.47 460.8 75.58L426.06 78.8L459.61 88.35C460.82 88.69 461.52 89.95 461.17 91.16C460.83 92.37 459.57 93.07 458.36 92.72L424.81 83.17L452.65 104.19C453.65 104.95 453.85 106.37 453.09 107.37C452.33 108.37 450.91 108.57 449.91 107.81L422.07 86.79L440.43 116.45C441.09 117.52 440.76 118.92 439.69 119.58C438.62 120.24 437.22 119.91 436.56 118.84L418.2 89.18L424.61 123.47C424.84 124.7 424.03 125.89 422.79 126.12C421.56 126.35 420.37 125.54 420.14 124.3L420.16 124.34Z" fill="#A57D49"/>
</g>
<defs>
<clipPath id="clip0_1_118">
<rect width="655.69" height="155.97" fill="white"/>
</clipPath>
</defs>
</svg>
