<svg width="656" height="156" viewBox="0 0 656 156" fill="none" xmlns="http://www.w3.org/2000/svg">
<g clip-path="url(#clip0_1_295)">
<path d="M0.449951 119.73V30.95H14.04V119.73H0.449951Z" fill="black"/>
<path d="M41.2099 119.73V30.9499H54.7999V48.8899L52.4399 46.7199C55.4599 40.9199 59.3799 36.5499 64.2199 33.5799C69.0499 30.6199 74.3699 29.1399 80.1599 29.1399C87.1599 29.1399 93.5099 31.2199 99.1899 35.3899C104.87 39.5599 108.73 44.8999 110.79 51.4299H107.17C110.07 44.2999 114.33 38.8099 119.94 34.9399C125.56 31.0799 131.93 29.1399 139.06 29.1399C145.58 29.1399 151.38 30.7999 156.45 34.1199C161.52 37.4399 165.48 41.9699 168.32 47.7099C171.16 53.4499 172.58 59.9399 172.58 67.1899V119.73H158.99V67.1899C158.99 62.3599 158.11 58.0099 156.36 54.1399C154.61 50.2799 152.1 47.2499 148.84 45.0799C145.58 42.9099 141.71 41.8199 137.24 41.8199C133.01 41.8199 129.12 42.9399 125.55 45.1699C121.99 47.4099 119.12 50.4599 116.94 54.3199C114.77 58.1899 113.68 62.4699 113.68 67.1799V119.72H100.09V67.1799C100.09 62.3499 99.2099 57.9999 97.4599 54.1299C95.7099 50.2699 93.1999 47.2399 89.9399 45.0699C86.6799 42.8999 82.8099 41.8099 78.3399 41.8099C74.1099 41.8099 70.2199 42.9299 66.6499 45.1599C63.0899 47.3999 60.2199 50.4499 58.0399 54.3099C55.8699 58.1799 54.7799 62.4599 54.7799 67.1699V119.71H41.1899L41.2099 119.73Z" fill="black"/>
<path d="M198.84 155.97V30.9499H212.43V50.6999L210.26 47.6199C213.76 42.0699 218.59 37.5999 224.75 34.2099C230.91 30.8299 237.67 29.1399 245.04 29.1399C253.13 29.1399 260.68 31.1599 267.69 35.2099C274.69 39.2599 280.25 44.8099 284.36 51.8799C288.47 58.9499 290.52 66.7699 290.52 75.3399C290.52 83.9099 288.46 91.7399 284.36 98.7999C280.25 105.87 274.7 111.42 267.69 115.47C260.68 119.52 253.13 121.54 245.04 121.54C237.67 121.54 230.91 119.85 224.75 116.47C218.59 113.09 213.76 108.62 210.26 103.06L212.43 99.9799V155.97H198.84ZM244.13 108.86C250.05 108.86 255.45 107.38 260.35 104.42C265.24 101.46 269.14 97.4499 272.04 92.3699C274.94 87.2999 276.39 81.6199 276.39 75.3399C276.39 69.0599 274.94 63.3799 272.04 58.3099C269.14 53.2399 265.25 49.2199 260.35 46.2599C255.46 43.2999 250.05 41.8199 244.13 41.8199C238.21 41.8199 232.74 43.2999 227.73 46.2599C222.72 49.2199 218.76 53.2399 215.86 58.3099C212.96 63.3799 211.51 69.0599 211.51 75.3399C211.51 81.6199 212.96 87.2999 215.86 92.3699C218.76 97.4399 222.71 101.46 227.73 104.42C232.74 107.38 238.21 108.86 244.13 108.86Z" fill="black"/>
<path d="M311.35 119.73V30.9498H324.94V49.7898L322.4 47.2498C326.02 41.5698 330.46 37.2898 335.72 34.3898C340.97 31.4898 346.74 30.0398 353.02 30.0398H360.27V42.7198H351.21C346.38 42.7198 341.97 43.8398 337.98 46.0698C333.99 48.3098 330.82 51.4198 328.47 55.3998C326.12 59.3898 324.94 63.9198 324.94 68.9898V119.72H311.35V119.73Z" fill="black"/>
<path d="M509.2 119.73L469.34 30.95H484.02L516.45 104.51H511.38L543.81 30.95H558.12L518.26 119.73H509.2Z" fill="black"/>
<path d="M611.75 121.55C603.42 121.55 595.83 119.53 589.01 115.48C582.18 111.44 576.84 105.91 572.98 98.8999C569.11 91.8999 567.18 84.0399 567.18 75.3499C567.18 66.6599 569.11 58.7999 572.98 51.7999C576.84 44.7999 582.19 39.2699 589.01 35.2199C595.83 31.1699 603.41 29.1499 611.75 29.1499C620.09 29.1499 628.36 31.3199 635.48 35.6699C642.6 40.0199 647.98 46.0599 651.6 53.7899C655.22 61.5199 656.43 70.2199 655.22 79.8799H576.59V67.5599H647.43L641.45 70.9999C641.45 65.3199 640.12 60.2499 637.46 55.7799C634.8 51.3099 631.21 47.8699 626.68 45.4499C622.15 43.0399 617.17 41.8299 611.73 41.8299C605.57 41.8299 600.19 43.2199 595.6 45.9999C591.01 48.7799 587.48 52.6999 585 57.7799C582.52 62.8499 581.29 68.7099 581.29 75.3499C581.29 81.9899 582.53 87.8499 585 92.9299C587.47 97.9999 591.01 101.93 595.6 104.71C600.19 107.49 605.56 108.88 611.73 108.88C615.96 108.88 619.76 108.31 623.14 107.16C626.52 106.01 629.54 104.29 632.2 102C634.86 99.7099 637.09 96.8699 638.9 93.4799H653.4C649.78 102.54 644.4 109.49 637.28 114.32C630.15 119.15 621.64 121.57 611.73 121.57L611.75 121.55Z" fill="black"/>
<path d="M7.5 15C11.6421 15 15 11.6421 15 7.5C15 3.35786 11.6421 0 7.5 0C3.35786 0 0 3.35786 0 7.5C0 11.6421 3.35786 15 7.5 15Z" fill="black"/>
<path d="M461.39 74.0001L461.26 72.5301L417.6 76.5801L456.85 57.0401L456.19 55.7201L416.95 75.2601L446.48 42.8601L445.39 41.8701L415.86 74.2701L431.7 33.3901L430.32 32.8501L414.48 73.7401V29.8901H413.01V73.7401L397.17 32.8501L395.8 33.3901L411.64 74.2701L382.1 41.8701L381.01 42.8601L410.55 75.2601L371.3 55.7201L370.65 57.0401L409.89 76.5801L366.24 72.5301L366.1 74.0001L409.76 78.0401L367.59 90.0401L367.99 91.4601L410.16 79.4601L375.17 105.88L376.06 107.06L411.05 80.6401L387.97 117.91L389.22 118.69L412.3 81.4101L404.24 124.51L405.69 124.78L413.75 81.6801L421.8 124.78L423.25 124.51L415.2 81.4101L438.28 118.69L439.53 117.91L416.45 80.6401L451.44 107.06L452.32 105.88L417.33 79.4601L459.5 91.4601L459.91 90.0401L417.74 78.0401L461.39 74.0001Z" fill="black"/>
<path d="M420.16 124.34L413.75 90.0501L407.34 124.34C407.11 125.57 405.92 126.39 404.69 126.16C403.46 125.93 402.64 124.74 402.87 123.51L409.28 89.2201L390.92 118.88C390.26 119.95 388.86 120.28 387.79 119.62C386.72 118.96 386.39 117.56 387.05 116.49L405.41 86.8301L377.57 107.85C376.57 108.61 375.14 108.41 374.39 107.41C373.63 106.41 373.83 104.98 374.83 104.23L402.67 83.2101L369.12 92.7601C367.91 93.1001 366.65 92.4001 366.31 91.2001C365.97 89.9901 366.67 88.7301 367.87 88.3901L401.42 78.8401L366.69 75.6201C365.44 75.5001 364.52 74.4001 364.64 73.1501C364.76 71.9001 365.86 70.9801 367.11 71.1001L401.85 74.3201L370.62 58.7701C369.5 58.2101 369.04 56.8501 369.6 55.7201C370.16 54.6001 371.52 54.1401 372.65 54.7001L403.88 70.2501L380.38 44.4701C379.53 43.5401 379.6 42.1001 380.53 41.2601C381.46 40.4101 382.9 40.4801 383.74 41.4101L407.24 67.1901L394.64 34.6601C394.19 33.4901 394.77 32.1701 395.94 31.7201C397.11 31.2701 398.43 31.8501 398.88 33.0201L411.48 65.5501V30.6301C411.48 29.3701 412.5 28.3601 413.75 28.3601C415.01 28.3601 416.02 29.3801 416.02 30.6301V65.5101L428.62 32.9801C429.07 31.8101 430.39 31.2301 431.56 31.6801C432.73 32.1301 433.31 33.4501 432.86 34.6201L420.26 67.1501L443.76 41.3701C444.61 40.4401 446.04 40.3801 446.97 41.2201C447.9 42.0701 447.96 43.5001 447.12 44.4301L423.62 70.2101L454.85 54.6601C455.97 54.1001 457.34 54.5601 457.9 55.6801C458.46 56.8001 458 58.1701 456.88 58.7301L425.65 74.2801L460.38 71.0601C461.63 70.9401 462.74 71.8601 462.85 73.1101C462.97 74.3601 462.05 75.4701 460.8 75.5801L426.06 78.8001L459.61 88.3501C460.82 88.6901 461.52 89.9501 461.17 91.1601C460.83 92.3701 459.57 93.0701 458.36 92.7201L424.81 83.1701L452.65 104.19C453.65 104.95 453.85 106.37 453.09 107.37C452.33 108.37 450.91 108.57 449.91 107.81L422.07 86.7901L440.43 116.45C441.09 117.52 440.76 118.92 439.69 119.58C438.62 120.24 437.22 119.91 436.56 118.84L418.2 89.1801L424.61 123.47C424.84 124.7 424.03 125.89 422.79 126.12C421.56 126.35 420.37 125.54 420.14 124.3L420.16 124.34Z" fill="black"/>
</g>
<defs>
<clipPath id="clip0_1_295">
<rect width="655.69" height="155.97" fill="white"/>
</clipPath>
</defs>
</svg>
