<svg width="830" height="156" viewBox="0 0 830 156" fill="none" xmlns="http://www.w3.org/2000/svg">
<g clip-path="url(#clip0_1_2)">
<path d="M174.04 119.73V30.95H187.63V119.73H174.04Z" fill="#25515E"/>
<path d="M214.8 119.73V30.95H228.39V48.89L226.03 46.72C229.05 40.92 232.97 36.55 237.81 33.58C242.64 30.62 247.96 29.14 253.75 29.14C260.75 29.14 267.1 31.22 272.78 35.39C278.46 39.56 282.32 44.9 284.38 51.43H280.76C283.66 44.3 287.92 38.81 293.53 34.94C299.15 31.08 305.52 29.14 312.65 29.14C319.17 29.14 324.97 30.8 330.04 34.12C335.11 37.44 339.07 41.97 341.91 47.71C344.75 53.45 346.17 59.94 346.17 67.19V119.73H332.58V67.19C332.58 62.36 331.7 58.01 329.95 54.14C328.2 50.28 325.69 47.25 322.43 45.08C319.17 42.91 315.3 41.82 310.83 41.82C306.6 41.82 302.71 42.94 299.14 45.17C295.58 47.41 292.71 50.46 290.53 54.32C288.36 58.19 287.27 62.47 287.27 67.18V119.72H273.68V67.18C273.68 62.35 272.8 58 271.05 54.13C269.3 50.27 266.79 47.24 263.53 45.07C260.27 42.9 256.4 41.81 251.93 41.81C247.7 41.81 243.81 42.93 240.24 45.16C236.68 47.4 233.81 50.45 231.63 54.31C229.46 58.18 228.37 62.46 228.37 67.17V119.71H214.78L214.8 119.73Z" fill="#25515E"/>
<path d="M372.43 155.97V30.95H386.02V50.7L383.85 47.62C387.35 42.07 392.18 37.6 398.34 34.21C404.5 30.83 411.26 29.14 418.63 29.14C426.72 29.14 434.27 31.16 441.28 35.21C448.28 39.26 453.84 44.81 457.95 51.88C462.06 58.95 464.11 66.77 464.11 75.34C464.11 83.91 462.05 91.74 457.95 98.8C453.84 105.87 448.29 111.42 441.28 115.47C434.27 119.52 426.72 121.54 418.63 121.54C411.26 121.54 404.5 119.85 398.34 116.47C392.18 113.09 387.35 108.62 383.85 103.06L386.02 99.98V155.97H372.43ZM417.73 108.86C423.65 108.86 429.05 107.38 433.95 104.42C438.84 101.46 442.74 97.45 445.64 92.37C448.54 87.3 449.99 81.62 449.99 75.34C449.99 69.06 448.54 63.38 445.64 58.31C442.74 53.24 438.85 49.22 433.95 46.26C429.06 43.3 423.65 41.82 417.73 41.82C411.81 41.82 406.34 43.3 401.33 46.26C396.32 49.22 392.36 53.24 389.46 58.31C386.56 63.38 385.11 69.06 385.11 75.34C385.11 81.62 386.56 87.3 389.46 92.37C392.36 97.44 396.31 101.46 401.33 104.42C406.34 107.38 411.81 108.86 417.73 108.86Z" fill="#25515E"/>
<path d="M484.94 119.73V30.95H498.53V49.79L495.99 47.25C499.61 41.57 504.05 37.29 509.31 34.39C514.56 31.49 520.33 30.04 526.61 30.04H533.86V42.72H524.8C519.97 42.72 515.56 43.84 511.57 46.07C507.58 48.31 504.41 51.42 502.06 55.4C499.71 59.39 498.53 63.92 498.53 68.99V119.72H484.94V119.73Z" fill="#25515E"/>
<path d="M587.5 121.55C579.04 121.55 571.28 119.53 564.22 115.48C557.15 111.44 551.54 105.88 547.37 98.81C543.2 91.74 541.12 83.92 541.12 75.35C541.12 66.78 543.2 58.95 547.37 51.89C551.54 44.82 557.16 39.27 564.22 35.22C571.29 31.17 579.05 29.15 587.5 29.15C595.95 29.15 603.72 31.17 610.78 35.22C617.85 39.27 623.46 44.82 627.63 51.89C631.8 58.96 633.88 66.78 633.88 75.35C633.88 83.92 631.8 91.75 627.63 98.81C623.46 105.88 617.84 111.43 610.78 115.48C603.71 119.53 595.95 121.55 587.5 121.55ZM587.5 108.86C593.42 108.86 598.82 107.38 603.72 104.42C608.61 101.46 612.51 97.45 615.41 92.37C618.31 87.3 619.76 81.62 619.76 75.34C619.76 69.06 618.31 63.38 615.41 58.31C612.51 53.24 608.62 49.22 603.72 46.26C598.83 43.3 593.42 41.82 587.5 41.82C581.58 41.82 576.18 43.3 571.28 46.26C566.39 49.22 562.49 53.24 559.59 58.31C556.69 63.38 555.24 69.06 555.24 75.34C555.24 81.62 556.69 87.3 559.59 92.37C562.49 97.44 566.38 101.46 571.28 104.42C576.17 107.38 581.58 108.86 587.5 108.86Z" fill="#25515E"/>
<path d="M682.8 119.73L642.94 30.95H657.62L690.05 104.51H684.98L717.41 30.95H731.72L691.86 119.73H682.8Z" fill="#25515E"/>
<path d="M785.35 121.55C777.02 121.55 769.43 119.53 762.61 115.48C755.78 111.44 750.44 105.91 746.58 98.9C742.71 91.9 740.78 84.04 740.78 75.35C740.78 66.66 742.71 58.8 746.58 51.8C750.44 44.8 755.79 39.27 762.61 35.22C769.43 31.17 777.01 29.15 785.35 29.15C793.69 29.15 801.96 31.32 809.08 35.67C816.2 40.02 821.58 46.06 825.2 53.79C828.82 61.52 830.03 70.22 828.82 79.88H750.19V67.56H821.03L815.05 71C815.05 65.32 813.72 60.25 811.06 55.78C808.4 51.31 804.81 47.87 800.28 45.45C795.75 43.04 790.77 41.83 785.33 41.83C779.17 41.83 773.79 43.22 769.2 46C764.61 48.78 761.08 52.7 758.6 57.78C756.12 62.85 754.89 68.71 754.89 75.35C754.89 81.99 756.13 87.85 758.6 92.93C761.07 98 764.61 101.93 769.2 104.71C773.79 107.49 779.16 108.88 785.33 108.88C789.56 108.88 793.36 108.31 796.74 107.16C800.12 106.01 803.14 104.29 805.8 102C808.46 99.71 810.69 96.87 812.5 93.48H827C823.38 102.54 818 109.49 810.88 114.32C803.75 119.15 795.24 121.57 785.33 121.57L785.35 121.55Z" fill="#25515E"/>
<path d="M125.14 73.04L124.96 71.14L68.51 76.37L119.26 51.1L118.41 49.4L67.66 74.67L105.86 32.77L104.45 31.49L66.25 73.39L86.73 20.52L84.96 19.83L64.47 72.7V16H62.57V72.7L42.09 19.83L40.31 20.52L60.79 73.39L22.6 31.49L21.19 32.77L59.39 74.67L8.63 49.4L7.78 51.1L58.54 76.37L2.08 71.14L1.9 73.04L58.36 78.27L3.83 93.79L4.35 95.62L58.88 80.1L13.64 114.27L14.78 115.79L60.03 81.62L30.18 129.83L31.8 130.83L61.65 82.62L51.23 138.36L53.1 138.71L63.52 82.97L73.94 138.71L75.81 138.36L65.39 82.62L95.24 130.83L96.86 129.83L67.01 81.62L112.26 115.79L113.41 114.27L68.16 80.1L122.69 95.62L123.22 93.79L68.68 78.27L125.14 73.04Z" fill="#25515E"/>
<path d="M71.81 138.14L63.52 93.79L55.23 138.14C54.93 139.74 53.39 140.79 51.8 140.49C50.2 140.19 49.15 138.66 49.45 137.06L57.74 92.72L33.99 131.08C33.14 132.46 31.32 132.89 29.94 132.03C28.56 131.18 28.13 129.36 28.99 127.98L52.74 89.62L16.74 116.81C15.44 117.79 13.6 117.53 12.62 116.24C11.64 114.94 11.9 113.1 13.19 112.12L49.19 84.93L5.8 97.28C4.24 97.72 2.61 96.82 2.17 95.26C1.73 93.7 2.63 92.07 4.19 91.63L47.58 79.28L2.66 75.12C1.04 74.97 -0.15 73.54 0 71.92C0.15 70.3 1.58 69.12 3.2 69.27L48.12 73.43L7.75 53.31C6.3 52.59 5.7 50.82 6.43 49.37C7.15 47.92 8.92 47.32 10.37 48.05L50.75 68.16L20.36 34.82C19.27 33.62 19.35 31.76 20.55 30.67C21.75 29.58 23.61 29.66 24.7 30.86L55.09 64.2L38.79 22.13C38.2 20.62 38.95 18.91 40.47 18.33C41.98 17.74 43.69 18.49 44.27 20.01L60.57 62.08V16.95C60.57 15.33 61.89 14.01 63.51 14.01C65.13 14.01 66.45 15.33 66.45 16.95V62.06L82.74 20C83.33 18.49 85.03 17.73 86.55 18.32C88.06 18.91 88.82 20.61 88.23 22.12L71.93 64.19L102.32 30.85C103.41 29.65 105.27 29.56 106.47 30.66C107.67 31.75 107.76 33.61 106.66 34.81L76.27 68.15L116.65 48.04C118.1 47.32 119.87 47.91 120.59 49.36C121.31 50.81 120.72 52.58 119.27 53.3L78.89 73.41L123.81 69.25C125.43 69.1 126.86 70.29 127.01 71.91C127.16 73.53 125.97 74.96 124.35 75.11L79.43 79.27L122.82 91.62C124.38 92.06 125.29 93.69 124.84 95.25C124.4 96.81 122.77 97.72 121.21 97.27L77.82 84.92L113.82 112.11C115.12 113.09 115.37 114.93 114.39 116.23C113.41 117.53 111.57 117.78 110.27 116.81L74.27 89.62L98.02 127.98C98.87 129.36 98.45 131.17 97.07 132.03C95.69 132.88 93.88 132.46 93.02 131.08L69.27 92.72L77.56 137.06C77.86 138.66 76.81 140.19 75.21 140.49C73.61 140.79 72.08 139.74 71.78 138.14H71.81Z" fill="#25515E"/>
<path d="M181.09 15C185.232 15 188.59 11.6421 188.59 7.5C188.59 3.35786 185.232 0 181.09 0C176.948 0 173.59 3.35786 173.59 7.5C173.59 11.6421 176.948 15 181.09 15Z" fill="#25515E"/>
</g>
<defs>
<clipPath id="clip0_1_2">
<rect width="829.28" height="155.97" fill="white"/>
</clipPath>
</defs>
</svg>
