<svg width="585" height="583" viewBox="0 0 585 583" fill="none" xmlns="http://www.w3.org/2000/svg">
<g clip-path="url(#clip0_1_343)">
<path d="M576.246 271.777L575.413 263.083L315.426 287.141L549.152 170.784L545.222 162.923L311.555 279.28L487.401 86.3447L480.969 80.4494L305.064 273.385L399.389 29.9527L391.171 26.7966L296.906 270.229V9.17041H288.093V270.229L193.769 26.7966L185.611 29.9527L279.935 273.385L104.03 80.4494L97.5396 86.3447L273.444 279.28L39.7184 162.923L35.8478 170.784L269.574 287.141L9.58709 263.083L8.75342 271.777L268.74 295.894L17.6261 367.352L20.008 375.748L271.122 304.35L62.7635 461.676L68.0633 468.643L276.422 311.317L138.985 533.312L146.429 537.898L283.865 315.962L235.929 572.555L244.504 574.162L292.5 317.57L340.496 574.162L349.071 572.555L301.134 315.962L438.571 537.898L446.015 533.312L308.578 311.317L516.936 468.643L522.177 461.676L313.878 304.35L564.992 375.748L567.374 367.352L316.26 295.894L576.246 271.777Z" fill="#40788D"/>
<path d="M330.671 571.542L292.5 367.352L254.33 571.542C252.96 578.867 245.874 583.75 238.55 582.38C231.225 581.01 226.342 573.924 227.712 566.6L265.882 362.409L156.552 539.029C152.622 545.401 144.285 547.366 137.913 543.436C131.542 539.505 129.577 531.169 133.507 524.797L242.837 348.177L77.0554 473.347C71.1006 477.873 62.5852 476.682 58.1191 470.727C53.5934 464.773 54.7844 456.257 60.7392 451.791L226.521 326.621L26.7373 383.489C19.532 385.514 12.0289 381.346 10.0043 374.2C7.97964 366.995 12.148 359.492 19.2938 357.467L219.077 300.599L12.2671 281.424C4.82359 280.709 -0.654831 274.159 0.0597455 266.716C0.774322 259.272 7.32461 253.794 14.7681 254.508L221.638 273.683L35.6695 180.907C29.0001 177.572 26.2609 169.474 29.5956 162.745C32.9303 156.075 41.0288 153.336 47.7577 156.671L233.726 249.268L93.7288 95.7533C88.6672 90.2153 89.0841 81.6404 94.6221 76.6383C100.16 71.5768 108.735 71.9936 113.737 77.5316L253.675 231.046L178.644 37.3366C175.965 30.3695 179.418 22.5092 186.386 19.8295C193.353 17.1498 201.213 20.6036 203.893 27.5707L278.923 221.281V13.5174C278.923 6.01435 284.997 0 292.441 0C299.944 0 305.958 6.0739 305.958 13.5174V221.221L381.048 27.5707C383.728 20.6036 391.588 17.1498 398.555 19.8295C405.522 22.5092 408.976 30.3695 406.297 37.3366L331.266 231.046L471.204 77.5316C476.265 71.9936 484.781 71.6363 490.319 76.6383C495.857 81.6999 496.214 90.2153 491.212 95.7533L351.274 249.268L537.243 156.671C543.912 153.336 552.07 156.075 555.405 162.745C558.74 169.414 556 177.572 549.331 180.907L363.362 273.504L570.173 254.33C577.616 253.615 584.226 259.094 584.881 266.537C585.596 273.981 580.117 280.59 572.674 281.245L365.804 300.42L565.588 357.288C572.793 359.313 576.961 366.816 574.877 374.021C572.852 381.227 565.349 385.395 558.144 383.311L358.36 326.442L524.142 451.612C530.097 456.138 531.288 464.594 526.762 470.549C522.237 476.503 513.781 477.694 507.826 473.169L342.044 347.999L451.374 524.618C455.305 530.99 453.339 539.327 446.968 543.257C440.596 547.187 432.259 545.222 428.329 538.85L318.999 362.231L357.169 566.421C358.539 573.745 353.716 580.832 346.332 582.201C339.007 583.571 331.921 578.747 330.551 571.364L330.671 571.542Z" fill="#40788D"/>
</g>
<defs>
<clipPath id="clip0_1_343">
<rect width="585" height="582.618" fill="white"/>
</clipPath>
</defs>
</svg>
