<svg width="550" height="547" viewBox="0 0 550 547" fill="none" xmlns="http://www.w3.org/2000/svg">
<g clip-path="url(#clip0_1_1554)">
<path d="M548.61 250.31C547.97 243.33 541.79 238.2 534.81 238.84L340.99 256.8L515.23 170.04C521.5 166.92 524.06 159.3 520.93 153.02C517.81 146.75 510.19 144.2 503.92 147.32L329.68 234.08L460.81 90.23C465.53 85.05 465.16 77.03 459.98 72.31C454.8 67.59 446.78 67.96 442.06 73.14L310.92 216.99L381.24 35.49C383.77 28.96 380.53 21.61 373.99 19.07C367.45 16.54 360.1 19.78 357.57 26.32L287.26 207.82V13.19C287.26 6.18 281.58 0.5 274.57 0.5C267.56 0.5 261.88 6.18 261.88 13.19V207.84L191.58 26.33C189.05 19.79 181.7 16.55 175.16 19.08C168.63 21.61 165.39 28.96 167.92 35.49L238.24 217L107.11 73.15C102.39 67.97 94.3699 67.6 89.1899 72.32C84.0099 77.04 83.6399 85.07 88.3599 90.25L219.49 234.09L45.2499 147.33C38.9799 144.21 31.3599 146.76 28.2399 153.03C25.1199 159.3 27.6699 166.92 33.9399 170.04L208.18 256.8L14.3599 238.85C7.38994 238.2 1.20994 243.33 0.559937 250.3C-0.0900633 257.28 5.03994 263.46 12.0199 264.11L205.84 282.07L18.6199 335.34C11.8799 337.26 7.96994 344.28 9.88994 351.01C11.8099 357.75 18.8299 361.66 25.5599 359.74L212.78 306.47L57.4399 423.77C51.8499 427.99 50.7399 435.95 54.9599 441.54C59.1799 447.13 67.1399 448.24 72.7299 444.02L228.06 326.72L125.59 492.21C121.9 498.17 123.74 505.99 129.7 509.67C135.66 513.36 143.47 511.52 147.16 505.56L249.64 340.06L213.87 531.4C212.58 538.29 217.12 544.91 224 546.2C230.89 547.49 237.52 542.95 238.81 536.06L274.58 344.72L310.34 536.06C311.63 542.95 318.26 547.49 325.15 546.2C332.04 544.91 336.57 538.28 335.28 531.4L299.51 340.06L401.99 505.56C405.68 511.52 413.49 513.35 419.45 509.67C425.41 505.98 427.25 498.16 423.56 492.2L321.09 326.71L476.42 444.01C482.01 448.23 489.97 447.12 494.19 441.53C498.41 435.94 497.3 427.99 491.71 423.77L336.38 306.46L523.6 359.73C530.34 361.65 537.36 357.74 539.27 351C541.19 344.26 537.28 337.24 530.54 335.33L343.32 282.06L537.14 264.1C544.11 263.45 549.24 257.28 548.6 250.3L548.61 250.31Z" stroke="#A57D49" stroke-miterlimit="10"/>
</g>
<defs>
<clipPath id="clip0_1_1554">
<rect width="549.17" height="546.94" fill="white"/>
</clipPath>
</defs>
</svg>
