<svg width="1922" height="1101" viewBox="0 0 1922 1101" fill="none" xmlns="http://www.w3.org/2000/svg">
<g clip-path="url(#clip0_1_1655)">
<path d="M1647.17 0.5C1798.68 0.5 1921.5 123.32 1921.5 274.83H1647.17V0.5Z" stroke="#25515E" stroke-miterlimit="10"/>
<path d="M823.97 1.01953C975.48 1.01953 1098.3 123.84 1098.3 275.35H823.97V1.01953Z" stroke="#25515E" stroke-miterlimit="10"/>
<path d="M549.4 275.34C549.4 123.83 672.22 1.00977 823.73 1.00977V275.34H549.4Z" stroke="#25515E" stroke-miterlimit="10"/>
<path d="M274.83 275.1C274.83 123.59 397.65 0.769531 549.16 0.769531V275.1H274.83Z" stroke="#25515E" stroke-miterlimit="10"/>
<path d="M274.83 275.35C274.83 123.84 152.01 1.01953 0.5 1.01953V275.35H274.83Z" stroke="#25515E" stroke-miterlimit="10"/>
<path d="M1647.44 275.34C1495.93 275.34 1373.11 152.52 1373.11 1.00977H1647.44V275.34Z" stroke="#25515E" stroke-miterlimit="10"/>
<path d="M1098.79 275.1C1250.3 275.1 1373.12 152.28 1373.12 0.769531H1098.79V275.1Z" stroke="#25515E" stroke-miterlimit="10"/>
<path d="M0.5 275.5C0.5 427.01 123.32 549.83 274.83 549.83V275.5H0.5Z" stroke="#25515E" stroke-miterlimit="10"/>
<path d="M1098.03 550.34C1098.03 398.83 975.21 276.01 823.7 276.01V550.34H1098.03Z" stroke="#25515E" stroke-miterlimit="10"/>
<path d="M1098.27 276.02C1098.27 427.53 1221.09 550.35 1372.6 550.35V276.02H1098.27Z" stroke="#25515E" stroke-miterlimit="10"/>
<path d="M1647.17 550.1C1647.17 398.59 1524.35 275.77 1372.84 275.77V550.1H1647.17Z" stroke="#25515E" stroke-miterlimit="10"/>
<path d="M1647.17 550.35C1647.17 398.84 1769.99 276.02 1921.5 276.02V550.35H1647.17Z" stroke="#25515E" stroke-miterlimit="10"/>
<path d="M274.83 550.5C123.32 550.5 0.5 673.32 0.5 824.83H274.83V550.5Z" stroke="#25515E" stroke-miterlimit="10"/>
<path d="M823.7 825.34C975.21 825.34 1098.03 702.52 1098.03 551.01H823.7V825.34Z" stroke="#25515E" stroke-miterlimit="10"/>
<path d="M1098.27 551.02C1098.27 702.53 1221.09 825.349 1372.6 825.349V551.02H1098.27Z" stroke="#25515E" stroke-miterlimit="10"/>
<path d="M1647.17 825.099C1647.17 673.589 1524.35 550.77 1372.84 550.77V825.099H1647.17Z" stroke="#25515E" stroke-miterlimit="10"/>
<path d="M1647.17 825.349C1647.17 673.839 1769.99 551.02 1921.5 551.02V825.349H1647.17Z" stroke="#25515E" stroke-miterlimit="10"/>
<path d="M274.83 825.5C123.32 825.5 0.5 948.32 0.5 1099.83H274.83V825.5Z" stroke="#25515E" stroke-miterlimit="10"/>
<path d="M1098.03 826.02C946.52 826.02 823.7 948.839 823.7 1100.35H1098.03V826.02Z" stroke="#25515E" stroke-miterlimit="10"/>
<path d="M1098.27 826.02C1098.27 977.53 1221.09 1100.35 1372.6 1100.35V826.02H1098.27Z" stroke="#25515E" stroke-miterlimit="10"/>
<path d="M1647.17 1100.1C1647.17 948.589 1524.35 825.77 1372.84 825.77V1100.1H1647.17Z" stroke="#25515E" stroke-miterlimit="10"/>
<path d="M1647.17 1100.35C1647.17 948.839 1769.99 826.02 1921.5 826.02V1100.35H1647.17Z" stroke="#25515E" stroke-miterlimit="10"/>
<path d="M274.56 1100.34C426.07 1100.34 548.89 977.52 548.89 826.01H274.56V1100.34Z" stroke="#25515E" stroke-miterlimit="10"/>
<path d="M823.21 1100.1C671.7 1100.1 548.88 977.28 548.88 825.77H823.21V1100.1Z" stroke="#25515E" stroke-miterlimit="10"/>
<path d="M823.45 525.4C822.81 518.42 816.63 513.29 809.65 513.93L615.83 531.89L790.07 445.13C796.34 442.01 798.9 434.39 795.77 428.11C792.65 421.84 785.03 419.29 778.76 422.41L604.52 509.17L735.65 365.32C740.37 360.14 740 352.12 734.82 347.4C729.64 342.68 721.62 343.05 716.9 348.23L585.76 492.08L656.08 310.58C658.61 304.05 655.37 296.7 648.83 294.16C642.29 291.63 634.94 294.87 632.41 301.41L562.1 482.91V288.26C562.1 281.25 556.42 275.57 549.41 275.57C542.4 275.57 536.72 281.25 536.72 288.26V482.91L466.41 301.4C463.88 294.86 456.53 291.62 449.99 294.15C443.46 296.68 440.22 304.03 442.75 310.56L513.07 492.07L381.94 348.22C377.22 343.04 369.2 342.67 364.02 347.39C358.84 352.11 358.47 360.14 363.19 365.32L494.32 509.16L320.08 422.4C313.81 419.28 306.19 421.83 303.07 428.1C299.95 434.37 302.5 441.99 308.77 445.11L483.01 531.87L289.19 513.91C282.22 513.26 276.04 518.39 275.39 525.36C274.74 532.34 279.87 538.52 286.85 539.17L480.67 557.13L293.45 610.4C286.71 612.32 282.8 619.34 284.72 626.07C286.64 632.81 293.66 636.72 300.39 634.8L487.61 581.53L332.27 698.83C326.68 703.05 325.57 711.01 329.79 716.6C334.01 722.19 341.97 723.3 347.56 719.08L502.89 601.78L400.42 767.27C396.73 773.23 398.57 781.05 404.53 784.73C410.49 788.42 418.3 786.58 421.99 780.62L524.47 615.12L488.7 806.46C487.41 813.35 491.95 819.97 498.83 821.26C505.72 822.55 512.35 818.01 513.64 811.12L549.41 619.78L585.17 811.12C586.46 818.01 593.09 822.55 599.98 821.26C606.87 819.97 611.4 813.34 610.11 806.46L574.34 615.12L676.82 780.62C680.51 786.58 688.32 788.41 694.28 784.73C700.24 781.04 702.08 773.22 698.39 767.26L595.92 601.77L751.25 719.07C756.84 723.29 764.8 722.18 769.02 716.59C773.24 711 772.13 703.05 766.54 698.83L611.21 581.52L798.43 634.79C805.17 636.71 812.19 632.8 814.1 626.06C816.02 619.32 812.11 612.3 805.37 610.39L618.15 557.12L811.97 539.16C818.94 538.51 824.07 532.34 823.43 525.36L823.45 525.4Z" stroke="#25515E" stroke-miterlimit="10"/>
</g>
<defs>
<clipPath id="clip0_1_1655">
<rect width="1922" height="1100.85" fill="white"/>
</clipPath>
</defs>
</svg>
