<svg width="1922" height="1101" viewBox="0 0 1922 1101" fill="none" xmlns="http://www.w3.org/2000/svg">
<g clip-path="url(#clip0_1_1865)">
<path d="M274.83 1100.35C123.32 1100.35 0.499989 977.53 0.499976 826.02L274.83 826.02L274.83 1100.35Z" stroke="#A57D49" stroke-miterlimit="10"/>
<path d="M1098.03 1099.83C946.52 1099.83 823.7 977.01 823.7 825.5L1098.03 825.5L1098.03 1099.83Z" stroke="#A57D49" stroke-miterlimit="10"/>
<path d="M1372.6 825.51C1372.6 977.02 1249.78 1099.84 1098.27 1099.84L1098.27 825.51L1372.6 825.51Z" stroke="#A57D49" stroke-miterlimit="10"/>
<path d="M1647.17 825.75C1647.17 977.26 1524.35 1100.08 1372.84 1100.08L1372.84 825.75L1647.17 825.75Z" stroke="#A57D49" stroke-miterlimit="10"/>
<path d="M1647.17 825.5C1647.17 977.01 1769.99 1099.83 1921.5 1099.83L1921.5 825.5L1647.17 825.5Z" stroke="#A57D49" stroke-miterlimit="10"/>
<path d="M274.56 825.51C426.07 825.51 548.89 948.33 548.89 1099.84L274.56 1099.84L274.56 825.51Z" stroke="#A57D49" stroke-miterlimit="10"/>
<path d="M823.21 825.75C671.7 825.75 548.88 948.57 548.88 1100.08L823.21 1100.08L823.21 825.75Z" stroke="#A57D49" stroke-miterlimit="10"/>
<path d="M1921.5 825.35C1921.5 673.84 1798.68 551.02 1647.17 551.02L1647.17 825.35L1921.5 825.35Z" stroke="#A57D49" stroke-miterlimit="10"/>
<path d="M823.97 550.51C823.97 702.02 946.79 824.84 1098.3 824.84L1098.3 550.51L823.97 550.51Z" stroke="#A57D49" stroke-miterlimit="10"/>
<path d="M823.73 824.83C823.73 673.32 700.91 550.5 549.4 550.5L549.4 824.83L823.73 824.83Z" stroke="#A57D49" stroke-miterlimit="10"/>
<path d="M274.83 550.75C274.83 702.26 397.65 825.08 549.16 825.08L549.16 550.75L274.83 550.75Z" stroke="#A57D49" stroke-miterlimit="10"/>
<path d="M274.83 550.5C274.83 702.01 152.01 824.83 0.5 824.83L0.499976 550.5L274.83 550.5Z" stroke="#A57D49" stroke-miterlimit="10"/>
<path d="M1647.17 550.35C1798.68 550.35 1921.5 427.53 1921.5 276.02L1647.17 276.02L1647.17 550.35Z" stroke="#A57D49" stroke-miterlimit="10"/>
<path d="M1098.3 275.51C946.79 275.51 823.97 398.33 823.97 549.84L1098.3 549.84L1098.3 275.51Z" stroke="#A57D49" stroke-miterlimit="10"/>
<path d="M823.73 549.83C823.73 398.32 700.91 275.5 549.4 275.5L549.4 549.83L823.73 549.83Z" stroke="#A57D49" stroke-miterlimit="10"/>
<path d="M274.83 275.75C274.83 427.26 397.65 550.08 549.16 550.08L549.16 275.75L274.83 275.75Z" stroke="#A57D49" stroke-miterlimit="10"/>
<path d="M274.83 275.5C274.83 427.01 152.01 549.83 0.5 549.83L0.499976 275.5L274.83 275.5Z" stroke="#A57D49" stroke-miterlimit="10"/>
<path d="M1647.17 275.35C1798.68 275.35 1921.5 152.53 1921.5 1.01965L1647.17 1.01968L1647.17 275.35Z" stroke="#A57D49" stroke-miterlimit="10"/>
<path d="M823.97 274.83C975.48 274.83 1098.3 152.01 1098.3 0.500122L823.97 0.500146L823.97 274.83Z" stroke="#A57D49" stroke-miterlimit="10"/>
<path d="M823.73 274.83C823.73 123.32 700.91 0.500133 549.4 0.500146L549.4 274.83L823.73 274.83Z" stroke="#A57D49" stroke-miterlimit="10"/>
<path d="M274.83 0.750146C274.83 152.26 397.65 275.08 549.16 275.08L549.16 0.750122L274.83 0.750146Z" stroke="#A57D49" stroke-miterlimit="10"/>
<path d="M274.83 0.500122C274.83 152.01 152.01 274.83 0.5 274.83L0.499976 0.500146L274.83 0.500122Z" stroke="#A57D49" stroke-miterlimit="10"/>
<path d="M1647.44 0.509888C1495.93 0.509901 1373.11 123.33 1373.11 274.84L1647.44 274.84L1647.44 0.509888Z" stroke="#A57D49" stroke-miterlimit="10"/>
<path d="M1098.79 0.750146C1250.3 0.750133 1373.12 123.57 1373.12 275.08L1098.79 275.08L1098.79 0.750146Z" stroke="#A57D49" stroke-miterlimit="10"/>
<path d="M1098.55 575.449C1099.19 582.429 1105.37 587.559 1112.35 586.919L1306.17 568.959L1131.93 655.719C1125.66 658.839 1123.1 666.459 1126.23 672.739C1129.35 679.009 1136.97 681.559 1143.24 678.439L1317.48 591.679L1186.35 735.529C1181.63 740.709 1182 748.729 1187.18 753.449C1192.36 758.169 1200.38 757.799 1205.1 752.619L1336.24 608.769L1265.92 790.269C1263.39 796.799 1266.63 804.149 1273.17 806.689C1279.71 809.219 1287.06 805.979 1289.59 799.439L1359.9 617.939L1359.9 812.589C1359.9 819.599 1365.58 825.279 1372.59 825.279C1379.6 825.279 1385.28 819.599 1385.28 812.589L1385.28 617.939L1455.59 799.449C1458.12 805.989 1465.47 809.229 1472.01 806.699C1478.54 804.169 1481.78 796.819 1479.25 790.289L1408.93 608.779L1540.06 752.629C1544.78 757.809 1552.8 758.179 1557.98 753.459C1563.16 748.739 1563.53 740.709 1558.81 735.529L1427.68 591.689L1601.92 678.449C1608.19 681.569 1615.81 679.019 1618.93 672.749C1622.05 666.479 1619.5 658.859 1613.23 655.739L1438.99 568.979L1632.81 586.939C1639.78 587.589 1645.96 582.459 1646.61 575.489C1647.26 568.509 1642.13 562.329 1635.15 561.679L1441.33 543.719L1628.55 490.449C1635.29 488.529 1639.2 481.509 1637.28 474.779C1635.36 468.039 1628.34 464.129 1621.61 466.049L1434.39 519.319L1589.73 402.019C1595.32 397.799 1596.43 389.839 1592.21 384.249C1587.99 378.659 1580.03 377.549 1574.44 381.769L1419.11 499.069L1521.58 333.579C1525.27 327.619 1523.43 319.799 1517.47 316.119C1511.51 312.429 1503.7 314.269 1500.01 320.229L1397.53 485.729L1433.3 294.389C1434.59 287.499 1430.05 280.879 1423.17 279.589C1416.28 278.299 1409.65 282.839 1408.36 289.729L1372.59 481.069L1336.83 289.729C1335.54 282.839 1328.91 278.299 1322.02 279.589C1315.13 280.879 1310.6 287.509 1311.89 294.389L1347.66 485.729L1245.18 320.229C1241.49 314.269 1233.68 312.439 1227.72 316.119C1221.76 319.809 1219.92 327.629 1223.61 333.589L1326.08 499.079L1170.75 381.779C1165.16 377.559 1157.2 378.669 1152.98 384.259C1148.76 389.849 1149.87 397.799 1155.46 402.019L1310.79 519.329L1123.57 466.059C1116.83 464.139 1109.81 468.049 1107.9 474.789C1105.98 481.529 1109.89 488.549 1116.63 490.459L1303.85 543.729L1110.03 561.689C1103.06 562.339 1097.93 568.509 1098.57 575.489L1098.55 575.449Z" stroke="#A57D49" stroke-miterlimit="10"/>
</g>
<defs>
<clipPath id="clip0_1_1865">
<rect width="1922" height="1100.85" fill="white"/>
</clipPath>
</defs>
</svg>
