<svg width="1922" height="1101" viewBox="0 0 1922 1101" fill="none" xmlns="http://www.w3.org/2000/svg">
<g clip-path="url(#clip0_1_2645)">
<path d="M1647.17 0.5C1798.68 0.5 1921.5 123.32 1921.5 274.83H1647.17V0.5Z" stroke="black" stroke-miterlimit="10"/>
<path d="M823.97 1.01953C975.48 1.01953 1098.3 123.84 1098.3 275.35H823.97V1.01953Z" stroke="black" stroke-miterlimit="10"/>
<path d="M549.4 275.34C549.4 123.83 672.22 1.00977 823.73 1.00977V275.34H549.4Z" stroke="black" stroke-miterlimit="10"/>
<path d="M274.83 275.1C274.83 123.59 397.65 0.769531 549.16 0.769531V275.1H274.83Z" stroke="black" stroke-miterlimit="10"/>
<path d="M274.83 275.35C274.83 123.84 152.01 1.01953 0.5 1.01953V275.35H274.83Z" stroke="black" stroke-miterlimit="10"/>
<path d="M1647.44 275.34C1495.93 275.34 1373.11 152.52 1373.11 1.00977H1647.44V275.34Z" stroke="black" stroke-miterlimit="10"/>
<path d="M1098.79 275.1C1250.3 275.1 1373.12 152.28 1373.12 0.769531H1098.79V275.1Z" stroke="black" stroke-miterlimit="10"/>
<path d="M0.5 275.5C0.5 427.01 123.32 549.83 274.83 549.83V275.5H0.5Z" stroke="black" stroke-miterlimit="10"/>
<path d="M1098.03 550.34C1098.03 398.83 975.21 276.01 823.7 276.01V550.34H1098.03Z" stroke="black" stroke-miterlimit="10"/>
<path d="M1098.27 276.02C1098.27 427.53 1221.09 550.35 1372.6 550.35V276.02H1098.27Z" stroke="black" stroke-miterlimit="10"/>
<path d="M1647.17 550.1C1647.17 398.59 1524.35 275.77 1372.84 275.77V550.1H1647.17Z" stroke="black" stroke-miterlimit="10"/>
<path d="M1647.17 550.35C1647.17 398.84 1769.99 276.02 1921.5 276.02V550.35H1647.17Z" stroke="black" stroke-miterlimit="10"/>
<path d="M274.83 550.5C123.32 550.5 0.5 673.32 0.5 824.83H274.83V550.5Z" stroke="black" stroke-miterlimit="10"/>
<path d="M823.7 825.34C975.21 825.34 1098.03 702.52 1098.03 551.01H823.7V825.34Z" stroke="black" stroke-miterlimit="10"/>
<path d="M1098.27 551.02C1098.27 702.53 1221.09 825.349 1372.6 825.349V551.02H1098.27Z" stroke="black" stroke-miterlimit="10"/>
<path d="M1647.17 825.099C1647.17 673.589 1524.35 550.77 1372.84 550.77V825.099H1647.17Z" stroke="black" stroke-miterlimit="10"/>
<path d="M1647.17 825.349C1647.17 673.839 1769.99 551.02 1921.5 551.02V825.349H1647.17Z" stroke="black" stroke-miterlimit="10"/>
<path d="M274.83 825.5C123.32 825.5 0.5 948.32 0.5 1099.83H274.83V825.5Z" stroke="black" stroke-miterlimit="10"/>
<path d="M1098.03 826.02C946.52 826.02 823.7 948.839 823.7 1100.35H1098.03V826.02Z" stroke="black" stroke-miterlimit="10"/>
<path d="M1098.27 826.02C1098.27 977.53 1221.09 1100.35 1372.6 1100.35V826.02H1098.27Z" stroke="black" stroke-miterlimit="10"/>
<path d="M1647.17 1100.1C1647.17 948.589 1524.35 825.77 1372.84 825.77V1100.1H1647.17Z" stroke="black" stroke-miterlimit="10"/>
<path d="M1647.17 1100.35C1647.17 948.839 1769.99 826.02 1921.5 826.02V1100.35H1647.17Z" stroke="black" stroke-miterlimit="10"/>
<path d="M274.56 1100.34C426.07 1100.34 548.89 977.52 548.89 826.01H274.56V1100.34Z" stroke="black" stroke-miterlimit="10"/>
<path d="M823.21 1100.1C671.7 1100.1 548.88 977.28 548.88 825.77H823.21V1100.1Z" stroke="black" stroke-miterlimit="10"/>
</g>
<defs>
<clipPath id="clip0_1_2645">
<rect width="1922" height="1100.85" fill="white"/>
</clipPath>
</defs>
</svg>
